<svg xmlns="http://www.w3.org/2000/svg" width="600" height="109" viewBox="0 0 7500 1364"><style>.a{fill:#243374;}</style><rect width="600" height="109" fill="#FFF"/><path d="M1690.5 126.1c369 0 738 0 1107 0 0 370.6 0 741.2 0 1111.9 -369 0-738 0-1107 0C1690.5 867.3 1690.5 496.7 1690.5 126.1zM1729.5 165.3c0.1 125.9 0 251.8 0.1 377.7 0 218.6 0.1 437.2 0 655.8 343 0 686.1 0.1 1029.1 0 -0.2-125.9 0-251.8-0.1-377.7 0-218.6 0-437.2 0-655.8C2415.5 165.3 2072.5 165.2 1729.5 165.3z" class="a"/><path d="M4310.6 426c16.5 0 32.9 0 49.4 0 9.7 0.1 19.5-0.4 29.1 1.2 14.8 2.1 29.6 7.7 40.1 18.5 15.8 15.5 18 42.3 6.2 60.8 -7 11.5-18.1 19.8-29.8 26 16.7 2.9 32.2 12 42.1 25.9 10.5 14.5 12.6 33.5 10.4 50.8 -2.1 17.4-12.7 33.3-27.5 42.6 -16.2 10.3-35.8 13.3-54.6 13.4 -21.6 0.1-43.1 0-64.7 0 -0.1-1.2-0.1-2.4 0-3.6 2.1-0.4 4.6-0.4 6.2-2 5.5-4.9 7.5-12.4 7.4-19.5 0-63 0-126 0-189 0-7-1.8-14.8-7.4-19.4 -1.9-1.7-4.6-1.7-6.9-1.9C4310.5 428.4 4310.5 427.2 4310.6 426zM4349.5 438.1c0 30.3 0 60.6 0 90.9 14.2-0.3 28.9 1.3 42.6-3.6 10.6-3.8 20.1-11.7 24-22.5 5.4-15.5 3.4-34-6.8-47.1 -6-7.6-14.6-13-23.8-15.4C4373.7 437.1 4361.5 438.4 4349.5 438.1zM4349.5 541.1c0 37.3 0 74.6 0 111.9 14.7-0.2 29.6 0.8 44-2.5 13.1-3 26-10 33.4-21.5 6.9-10.8 8.4-24.5 6-37 -1.8-9.9-5.2-19.6-11.1-27.8 -7.2-10.4-18.5-17.6-30.8-20.6C4377.5 540 4363.4 541.4 4349.5 541.1z" class="a"/><path d="M4570.3 426c17.6 0 35.1 0 52.7 0 -0.1 1.2-0.1 2.4 0 3.6 -5.7-0.5-9.7 4.2-11.4 9 -3.3 7-2.2 15-2.4 22.5 0 63.6 0 127.3 0 190.9 26.6 0 53.2 0.1 79.9-0.1 6.5 0.1 12.8-2.8 17.3-7.5 6.5-6.5 9.7-15.7 10.1-24.7 0.9 0 2.8 0 3.8 0 0 15.2 0 30.3 0 45.4 -50 0-99.9 0-149.9 0 -0.1-1.2-0.1-2.4 0-3.6 2.4-0.3 5.1-0.3 7-2.2 4.9-4.6 7.4-11.6 7.3-18.3 0-64 0-128 0-192.1 -0.1-6.4-2.6-12.9-7.3-17.3 -1.9-1.9-4.6-1.9-7-2.1C4570.2 428.4 4570.2 427.2 4570.3 426z" class="a"/><path d="M4807.3 426c17.3 0 34.7 0 52.1 0 -0.1 1.2-0.1 2.4 0 3.6 -2.4 0.3-5 0.3-6.8 2 -4.9 4.3-7.1 11-7 17.4 0 42 0 84 0 126.1 0.1 13-0.7 26.1 2.1 38.9 2.3 12.3 8.4 24.3 18.6 31.9 8.8 6.6 19.9 9.8 30.8 10.5 8.7 0.5 17.6 0.3 26.1-1.8 9.1-2.2 17.6-7.3 23.8-14.5 6.8-8.2 10.2-18.6 11.4-29.1 1.2-8.2 1.3-16.5 1.2-24.8 0-45.7 0-91.4 0-137.1 0-6-1.9-12.1-6-16.4 -1.8-2.3-4.8-2.8-7.4-3 0-1.2 0-2.4 0-3.5 13.3 0 26.6 0 39.9 0 0 1.2 0 2.4 0.1 3.6 -2.3 0.3-4.9 0.2-6.6 2 -4.7 4.5-7 11-6.9 17.5 0 43 0 86 0 129 0.1 18.8 0.4 38.5-7.5 55.9 -4.9 11.3-13.4 21-24.4 26.6 -11.3 5.9-24.1 7.7-36.7 8.3 -17.6 0.5-36.1-0.6-51.9-9 -12.3-6.4-21.1-18.1-25.7-31 -4.3-11.8-5.5-24.4-5.5-36.8 0-45 0-90 0-135 0.2-8.3 0.2-17.6-5.8-24 -1.9-2.5-4.9-3.3-7.9-3.4C4807.2 428.4 4807.2 427.2 4807.3 426z" class="a"/><path d="M5100.7 426c46.8 0 93.5 0 140.3 0 0 11.4 0 22.7 0 34.1 -1.3 0-2.5 0-3.6 0 -0.3-8.5-5.4-17.3-13.9-19.7 -8.6-2.3-17.7-0.9-26.5-1.3 -19.3 0-38.5 0-57.8 0 0 30.3 0 60.6 0 90.9 19.6 0 39.2 0 58.8 0 5.6 0.1 11.6-1.3 15.8-5.3 3.5-2.9 5.3-7.3 5.7-11.8 1.2 0 2.4 0 3.7 0 0 15 0 30.1 0 45.1 -1.3 0-2.5 0-3.7 0 -0.4-9.4-9.5-15.9-18.4-15.8 -20.6-0.1-41.3 0-61.9-0.1 0 33 0 65.9 0 98.9 -0.1 6.8 2 14 7.3 18.6 1.7 1.6 4.2 1.5 6.5 1.9 -0.1 1.2-0.1 2.4 0 3.6 -17.5-0.1-34.9 0.1-52.3 0.1 -0.1-1.2-0.1-2.4 0-3.6 2.3-0.4 4.9-0.3 6.8-2 5.2-4.5 7.3-11.7 7.1-18.5 0-60 0-120 0-180 -0.2-8.5 1.2-17.6-3.3-25.2 -2-4-6.1-6.4-10.6-6.2C5100.6 428.7 5100.7 426.9 5100.7 426z" class="a"/><path d="M5348.7 426c46.8 0 93.5 0 140.3 0 0 11.4 0 22.7 0 34.1 -1.3 0-2.5 0-3.6 0 -0.2-8.5-5.4-17.3-13.9-19.7 -8.6-2.3-17.6-0.9-26.4-1.3 -19.3 0-38.6 0-57.9 0 0 30.3 0 60.6 0 90.9 18.9 0 37.9 0 56.8 0 5.1 0 10.5-0.3 14.9-3.1 5-2.9 8.3-8.2 8.6-14 1.2 0 2.4 0 3.7 0 0 15 0 30.1 0 45.1 -1.3 0-2.5 0-3.7 0 -0.4-9.4-9.6-15.9-18.5-15.8 -20.6-0.1-41.2 0-61.9-0.1 0 33 0 66 0 98.9 -0.1 6.8 2 14 7.3 18.6 1.7 1.6 4.2 1.5 6.5 1.8 -0.1 1.2-0.1 2.4 0 3.6 -17.5 0-34.9 0-52.3 0 0-0.9 0-2.6 0-3.5 9.4 0.2 13.7-10.6 13.8-18.5 0.1-61.7 0-123.3 0.1-185 0.1-8.3 0.7-17.7-5-24.6 -2.1-2.9-5.7-3.8-9-3.9C5348.6 428.6 5348.7 426.9 5348.7 426z" class="a"/><path d="M3582 439.1c16.2-7.7 34.1-11.1 52-11.9 9.7-0.3 19.5-0.4 29.1 1.1 7 1.1 13.9 2.8 20.9 4.1 6.9 1.3 13.6 3.9 20.7 3.7 0 12.9 0 25.8 0 38.7 -1.3 0-2.6 0-3.8 0 -1.5-7.3-4.5-14.5-10-19.7 -8.1-8.3-19.6-12.3-30.8-14 -19.5-2.7-39.7-1.3-58.2 5.5 -16.4 6.5-31.4 16.9-42.1 31 -10.7 13.7-17.4 30.3-20.5 47.3 -4.4 22.3-1.7 45.8 7.3 66.7 12.4 29.6 37.6 53.7 68.1 64 17.6 5.7 36.8 6.8 54.9 2.9 5.9-1.3 11.4-3.8 16.8-6.6 0-27.9 0-55.9 0-83.8 0-6.6-2.1-13.6-7.1-18.1 -1.8-1.7-4.5-1.7-6.8-2.1 0-1.2 0-2.4 0-3.6 17.5 0 34.9 0 52.4 0 0 1.2 0 2.4 0 3.6 -2.8 0.3-6 0.6-7.8 3.1 -4 4.7-6 11-6.1 17.1 0 32 0 64 0 95.9 -10.6 4-21.8 5.8-32.9 7.5 -21.8 2.9-44.1 4-65.8 0.1 -32-5.8-61.9-24.4-79.6-52 -20-31.1-25.3-71.1-14.7-106.5 4.6-16.3 12.7-31.6 23.9-44.3C3552.7 456 3566.8 446.1 3582 439.1z" class="a"/><path d="M3051.7 431c17.1 0 34.1 0 51.2 0 0 1.2 0 2.3 0.1 3.5 -2.8 0.3-5.8 0.5-7.6 2.8 -4 4.5-5.3 10.8-5.5 16.7 0 27 0 54 0 81 38.9 0 77.7 0 116.6 0 0-26.7 0-53.3 0-80 0-6.5-1.6-13.5-6.4-18.1 -1.8-2-4.6-2-7-2.3 0-1.2 0-2.3 0-3.5 17.1 0 34.2 0 51.2 0 -0.1 1.2-0.1 2.4 0 3.6 -3.3 0-6.8 1-8.6 4 -5.4 7.7-4.5 17.5-4.5 26.5 0 57.3 0 114.7 0 172 0.1 6.1-0.6 12.3 1.7 18.1 1.8 5.2 5.1 11.7 11.6 11.4 0 0.9 0 2.7 0 3.6 -17.1 0-34.1 0-51.2 0 -0.1-1.2-0.1-2.4-0.1-3.6 2.2-0.4 4.7-0.4 6.4-2.1 5.3-4.9 7.1-12.4 7.1-19.4 0-32.3 0-64.6 0-96.9 -38.9 0-77.7 0-116.6 0 0 29.6 0 59.3 0 88.9 -0.2 9-0.5 19.2 5.8 26.5 1.6 2.5 4.7 2.8 7.4 3.1 -0.1 1.2-0.1 2.4-0.1 3.6 -17.1 0.1-34.1-0.1-51.2-0.1 0-0.9 0-2.6 0-3.5 2.3-0.4 4.8-0.5 6.6-2.2 5.2-4.9 7-12.4 7-19.3 0-63.3 0-126.7 0-190 -0.1-6.6-1.7-13.8-6.8-18.4 -1.8-1.7-4.5-1.7-6.7-2C3051.7 433.4 3051.7 432.2 3051.7 431z" class="a"/><path d="M3351.8 431c17.5 0 34.9 0 52.4 0 0 1.2-0.1 2.3 0 3.5 -2.3 0.3-4.8 0.4-6.5 2.1 -4.8 4.4-6.8 11.1-7 17.4 0 64 0 128 0 192 -0.1 6.5 2 13 6.4 17.8 1.6 2.2 4.5 2.3 7.1 2.7 0 1.2 0 2.4 0 3.6 -17.5 0-34.9 0-52.4 0 0-1.2 0-2.4 0-3.6 2.5-0.4 5.4-0.5 7.2-2.5 5-4.9 6.7-12.2 6.6-19 0-54.4 0-108.7 0-163.1 -0.1-10.4 0.3-20.8-0.2-31.3 -0.8-7.2-5.1-16.5-13.6-16.2C3351.8 433.4 3351.8 432.2 3351.8 431z" class="a"/><path d="M3836.7 431c17.1 0 34.2 0 51.2 0 0 1.2 0 2.3 0 3.5 -2.8 0.2-5.8 0.5-7.6 2.8 -4 4.5-5.3 10.8-5.5 16.7 0 27 0 54 0 81 38.9 0 77.7 0 116.6 0 0-26.7 0-53.3 0-80 0-6.5-1.6-13.5-6.4-18.1 -1.8-2-4.7-2.1-7.1-2.4 0-1.2 0-2.3 0-3.5 17.1 0 34.2 0 51.2 0 -0.1 1.2-0.1 2.4 0 3.6 -3.3 0-6.7 1-8.6 3.9 -5.4 7.7-4.6 17.6-4.5 26.5 0 57.7 0 115.3 0 173 -0.5 9.1 0.3 19.1 6.7 26.1 1.5 2 4.1 2.1 6.4 2.5 -0.1 1.2 0 2.4 0 3.6 -17.1 0-34.1 0-51.2 0 -0.1-1.2-0.1-2.4-0.1-3.6 3.5-0.1 6.9-1.7 8.8-4.7 5.6-7.4 4.7-17.1 4.7-25.8 0-29.3 0-58.6 0-87.8 -38.9 0-77.7 0-116.6 0 0 32.6 0 65.3 0 97.9 0.1 6.4 1.8 13.1 6.2 18 1.6 2.1 4.4 2.2 6.9 2.6 -0.1 1.2-0.1 2.4-0.1 3.6 -17.1 0-34.1 0-51.2 0 0-0.9 0-2.7 0-3.6 3.3-0.1 6.7-1.4 8.5-4.4 6-7.7 5-18 5-27.2 0-59.3 0-118.7 0-178 0.2-5.9-0.7-12.1-4-17.2 -1.9-3.5-5.6-5.4-9.5-5.2C3836.7 433.4 3836.7 432.2 3836.7 431z" class="a"/><path d="M1868.3 447c30.7 0 61.5 0 92.2 0 0 2.2 0 4.4 0 6.6 -4.9-0.3-10.1 0.6-13.4 4.5 -7.1 7.8-9.5 18.7-10.2 29 0 49.7 0 99.3 0 149 70 0 140.1 0 210.1 0 0-48.7 0-97.4 0-146.1 -0.1-9.1-2-18.4-6.7-26.2 -2.2-3.6-5.1-7.1-9-8.9 -2.7-1.3-5.8-1-8.7-1.1 0-2.2-0.1-4.4-0.1-6.6 30.7-0.1 61.5 0 92.2 0 0 2.2 0 4.4 0 6.6 -4.9-0.3-10.2 0.7-13.5 4.6 -7.1 8-9.6 19.2-10.1 29.7 0 110.7 0 221.4 0 332.1 0.2 7.6-0.5 15.3 0.5 22.9 1.7 10.1 5.4 20.4 12.9 27.7 2.7 2.8 6.7 2.9 10.3 2.9 0 2.2 0 4.4 0 6.5 -30.7 0-61.5 0-92.2 0 0-2.2 0-4.4 0-6.5 3.8 0 8-0.2 11-2.9 9.8-8.5 13.3-22 13.5-34.5 0-59 0-117.9 0-176.9 -70 0-140.1 0-210.1 0 0 59 0 117.9 0 176.9 0 9.9 2.2 20.1 7.7 28.5 1.8 2.7 3.9 5.5 6.7 7.3 2.8 1.7 6.2 1.5 9.3 1.7 0 2.2 0 4.4 0 6.6 -30.7 0-61.5 0-92.2 0 0-2.2 0-4.4 0-6.6 4.1 0.1 8.6-0.4 11.6-3.5 9.2-8.6 12.8-21.7 12.7-34 0-108.3 0-216.7 0-325 -0.1-8.8 0.2-17.7-0.2-26.5 -1-10.1-4.4-20.9-12.3-27.8 -3.2-2.9-7.7-3.1-11.8-3C1868.3 451.4 1868.3 449.2 1868.3 447z" class="a"/><path d="M2317.2 447c38.3 0 76.6-0.1 114.8 0 30.1 0.7 61.3 6.8 86.1 24.8 13 9.4 23.9 22.1 30.1 37 6.3 14.8 7.9 31.3 6.4 47.2 -2.3 23.1-15.1 44.1-31.7 59.8 -10.4 9.8-22.6 17.4-35.2 23.9 14.7 2.9 29.3 7.5 42.1 15.4 16.1 10.1 30.2 23.7 39.6 40.4 9 15.6 12.9 33.6 14.3 51.4 1.2 22-1 44.8-10.9 64.8 -8.1 16.2-20.2 30.5-35.1 40.9 -27.2 19.2-61 26-93.7 27.2 -41.8 0.2-83.7 0.1-125.6 0.1 0-2.2 0-4.4 0-6.5 3.6 0 7.5-0.1 10.3-2.7 6.7-5.8 11.1-14 12.8-22.6 1.6-7.3 1.2-14.7 1.2-22.1 0-112 0-224 0-336 0-8.1-1.7-16.2-5.5-23.3 -2.5-4.6-5.8-9-10.5-11.5 -3-1.6-6.4-1.4-9.6-1.5C2317.2 451.4 2317.2 449.2 2317.2 447zM2387 468.1c0 55.3 0 110.6 0 165.9 20.7-0.4 41.6 1.2 62.1-2.5 18.2-3.4 35.8-12.4 47.6-26.9 6.8-8.2 11.2-18.2 13.3-28.7 4-18.2 2.8-37.6-3.7-55.1 -5.6-15.2-16.2-28.5-29.7-37.5 -14-9.5-30.9-14-47.7-15C2414.9 467.7 2400.9 468.3 2387 468.1zM2387 655.1c0 68 0 135.9 0 203.9 19.9-0.2 39.8 0.7 59.6-1.2 16.8-1.8 33.5-5.9 48.4-14 17.2-9.1 31.8-23.9 38.6-42.3 4.9-12.9 6.2-26.9 5.7-40.5 -2.7-27.7-12-56.1-32-76.2 -16.9-17.6-41.1-26.4-65-28.8C2423.8 654.4 2405.3 655.4 2387 655.1z" class="a"/><path d="M3279.9 960.9c16.8-44.4 33.4-88.8 50.2-133.1 15.7 42 31.3 84.1 47 126.1 2 5.3 3.7 11.1 7.6 15.4 1.7 2 4.4 2.2 6.8 2.7 0 0.5 0 1.6 0 2.1 -10.8 0-21.6 0-32.4 0 0-0.5 0-1.6 0-2.2 1.9-0.5 4.5-0.3 5.7-2.3 1.2-2.4 0.3-5.2-0.5-7.6 -6.4-17.3-12.7-34.6-19.1-51.9 -12.7 0-25.3 0-38 0 -6.2 17.1-12.4 34.2-18.6 51.3 -0.9 2.3-1.5 5.1-0.3 7.4 1 2.7 5 2.3 5.8 5.2 -8.3 0.2-16.6 0-24.9 0.1 0-0.5 0-1.6 0-2.1C3274.9 971.5 3277.8 965.7 3279.9 960.9zM3325.9 858c-5.5 15-11.1 30-16.7 45 11.1 0 22.2 0 33.3 0C3337 888 3331.5 873 3325.9 858z" class="a"/><path d="M3843.9 960.9c16.8-44.3 33.4-88.8 50.2-133.1 15.7 42 31.3 84.1 47 126.1 2 5.3 3.7 11 7.6 15.4 1.7 2 4.4 2.2 6.8 2.7 0 0.5 0 1.6 0 2.1 -10.8 0-21.6 0-32.4 0 0-0.5 0-1.6 0-2.1 1.9-0.5 4.5-0.3 5.6-2.2 1.2-2.4 0.3-5.2-0.5-7.6 -6.4-17.3-12.8-34.6-19.1-52 -12.7 0-25.3 0-38 0 -6.2 17.1-12.4 34.2-18.6 51.3 -0.9 2.4-1.6 5.1-0.4 7.5 1 2.7 5 2.3 5.8 5.2 -8.3 0.2-16.6 0-24.9 0.1 0-0.5 0-1.6 0-2.1C3838.9 971.5 3841.8 965.7 3843.9 960.9zM3889.9 858c-5.6 15-11.1 30-16.7 44.9 11.1 0.2 22.2 0 33.3 0.1C3901 888 3895.5 873 3889.9 858z" class="a"/><path d="M4422.9 960.9c16.8-44.3 33.4-88.8 50.2-133.1 15.8 42.3 31.5 84.6 47.2 126.9 1.9 5.1 3.7 10.6 7.4 14.7 1.7 2 4.4 2.2 6.8 2.6 0 0.5 0 1.5 0 2 -10.8 0-21.7 0-32.5 0 0-0.5 0-1.5 0.1-2 1.9-0.5 4.4-0.3 5.6-2.2 1.3-2.5 0.2-5.4-0.5-7.9 -6.4-17.2-12.7-34.5-19.1-51.7 -12.7 0-25.3 0-38 0 -6.1 16.9-12.2 33.9-18.4 50.8 -0.9 2.5-1.8 5.4-0.5 7.9 1 2.6 4.8 2.3 5.8 5 -8.3 0.3-16.6 0.1-24.9 0.2 0-0.5 0-1.5 0-2C4417.9 971.5 4420.8 965.7 4422.9 960.9zM4468.9 858c-5.5 15-11.1 30-16.6 45 11.1 0 22.2 0 33.3 0C4480 888 4474.5 873 4468.9 858z" class="a"/><path d="M3153 829.8c10-1.1 20.3-1.6 30.1 1 6.4 1.4 12.5 3.8 19.1 4.2 0 8.1 0.1 16.2 0 24.3 -3.1-0.1-2.9-3.4-3.8-5.5 -3-8.7-11.6-14.1-20.3-15.8 -17.4-3.4-36.4 0.3-50.5 11.2 -15.9 11.9-24.2 32.1-24 51.7 0.2 32.4 26.9 62.9 59.4 65.8 11.7 1 24.5-1.3 33.4-9.5 4-3.4 6.6-8.2 8.3-13.1 0.6 0 1.7-0.1 2.3-0.1 0.1 8 0 15.9 0 23.9 -10.9 1.3-21.1 6.1-32.1 7.5 -16.8 1.9-34.6-0.4-49.4-8.9 -16.5-8.8-29-24.6-34-42.6 -5.5-18.3-3.5-38.5 5.1-55.5C3107.2 847 3129.5 832.7 3153 829.8z" class="a"/><path d="M5407 846.9c9.5-14.7 28.6-19.2 45.1-17.8 9.5 0.6 18.5 4.2 28.1 4.3 0 7.5 0 15 0 22.5 -0.6 0-1.7 0-2.2 0 -0.5-5.3-2.1-11.1-6.9-14 -7.5-4.4-16.5-5.1-25-5.2 -6.7-0.2-13.6 1.3-18.9 5.5 -8.1 5.7-11.3 16.4-10.1 25.9 1.3 8.5 8.7 14.3 15.9 18 11.9 5.9 24.8 9.5 36.7 15.5 6.9 3.6 13.3 8.6 17.5 15.4 5.4 8.3 5.8 18.8 4.1 28.3 -2.6 13-13.3 23.3-25.6 27.4 -9.8 3.4-20.4 4.1-30.6 3 -10.2-1.5-19.6-6.3-29.8-7.6 0-8.2 0-16.4 0-24.6 0.6 0 1.7 0 2.3-0.1 0.2 4.1 0.8 8.4 3.3 11.8 5.1 7.1 13.7 10.8 22.2 12.1 10.4 1.7 21.8 0.7 30.8-5.2 10.7-6.8 15.9-21.3 11.7-33.2 -3.3-7.9-10.7-13.4-18.2-16.9 -8.2-3.6-16.6-6.7-24.9-10.1 -6.2-2.4-12.4-5.2-17.7-9.4 -6.1-4.7-11.1-11.4-12.3-19.1C5400.9 864.3 5401.9 854.6 5407 846.9z" class="a"/><path d="M3454.3 831.1c11.9-0.1 23.8-0.1 35.8 0 11.8 0.4 24.3 2.6 33.7 10.2 13.4 10.7 14.9 32.6 4.1 45.6 -8.8 11-22.9 16.6-36.7 18 -4.6 0.4-9.2 0.3-13.7 0.3 0 18.3 0 36.6 0 54.9 -0.1 5.1 2.4 10.7 7.6 12.3 0.2 0.4 0.7 1.2 1 1.7 -10.5 0.2-21 0-31.4 0.1 0-0.7-0.1-1.4 0-2 4.1-0.5 6.5-4.3 7.3-8 0.9-4 0.5-8.1 0.6-12.1 0-35.7 0-71.3 0-107 -0.1-5-2.1-11.2-7.7-12.1C3454.5 832.4 3454.4 831.5 3454.3 831.1zM3477.4 839.1c0 19.3 0 38.6 0 57.9 9.9 0.2 20.2-0.5 28.9-5.6 8.9-4.9 15.1-15.1 13.6-25.4 -0.7-7.5-4.3-14.9-10.5-19.3C3500.2 840 3488.4 839 3477.4 839.1z" class="a"/><path d="M3604.5 831c10.5 0 21 0 31.5 0 0 0.5-0.1 1.4-0.1 1.9 -5.7 0.7-7.9 7.1-8 12.1 0 38 0 76 0 114 -0.1 5.3 2 12.3 8 13.1 0 0.5 0 1.5 0 2 -10.6 0-21.2 0.1-31.9-0.1 0.6-2.8 4.1-2.4 5.6-4.5 2.6-3.2 3.3-7.6 3.3-11.6 0-37.3 0-74.7 0-112 0.2-5.4-2.1-12.5-8.3-13.1C3604.5 832.4 3604.5 831.5 3604.5 831z" class="a"/><path d="M3698.9 831c32.7 0 65.4 0 98 0 0 7.9 0 15.9 0 23.8 -0.5 0-1.6 0-2.2 0 -0.3-7.1-5-15-12.7-15.5 -9-0.2-18 0-27-0.1 0 40 0 80 0 119.9 0 5.2 2 12.2 8.1 13.1 0 0.5 0 1.5 0 2 -10.4 0-20.7 0-31.1 0 0-0.5 0-1.5 0-2 5.7-0.7 8.2-7.1 8.2-12.1 0-40.3 0-80.6 0-120.9 -8.8 0.1-17.6-0.1-26.3 0.1 -7.8 0.5-12.6 8.4-12.8 15.6 -0.5 0-1.6 0-2.2 0C3698.9 846.8 3698.9 838.9 3698.9 831z" class="a"/><path d="M4018.1 831.2c10.9-0.3 21.8-0.3 32.7 0 -1 2.5-4.1 2.3-5.6 4.2 -2.3 3-3.3 6.9-3.3 10.7 0 40 0 80 0 120 15.3 0 30.7 0 46 0 8.4 0.7 15.4-6.3 17.1-14.1 0.8-2.1 0-5.6 3.1-5.8 0.2 9.3 0 18.6 0.1 27.8 -30 0.1-60.1 0.2-90.1 0.1 0.7-2.7 4-2.4 5.5-4.3 2.5-3 3.6-6.9 3.5-10.7 0-38 0-76 0-114 0-3.5-1.2-7-3.4-9.7C4022.2 833.4 4019.1 833.6 4018.1 831.2z" class="a"/><path d="M4272.2 831.1c11.9-0.2 23.9-0.1 35.8-0.1 12 0.4 24.9 2.7 34.3 10.7 13.5 11.3 14.1 34.1 2.1 46.7 -12.2 13.5-31.5 17.6-49 16.7 0 18.3 0 36.6 0 55 0 5 2.3 11.4 8 12.1 0 0.5 0 1.4 0.1 1.9 -10.4 0-20.8 0.1-31.2-0.1 0.1-0.4 0.2-1.3 0.3-1.8 3.8-0.5 6.1-3.9 7.1-7.4 0.9-3.5 0.7-7.2 0.7-10.7 0-36.3 0-72.6 0-109 -0.1-4.9-2.1-11.2-7.7-12.1C4272.5 832.4 4272.3 831.6 4272.2 831.1zM4295.4 839.1c0 19.3 0 38.6 0 57.9 10.4 0.2 21.3-0.6 30.2-6.4 8.2-5.1 13.7-14.9 12.3-24.6 -0.7-7.5-4.3-14.8-10.5-19.2C4318.2 840 4306.4 839 4295.4 839.1z" class="a"/><path d="M4593.2 831.1c12.9-0.3 25.9 0 38.8-0.1 10.7-0.1 21.8 1.4 31.1 6.8 6.4 3.7 11.3 9.8 13.1 17 2.6 10.7 1 22.7-6 31.4 -6.4 8.4-16.8 12.3-26.8 14.4 10.1 15.2 20 30.5 30.5 45.4 5.3 7.3 9.4 15.6 16.1 21.8 2.3 2.3 5.4 3.4 8.5 4.1 0.1 0.5 0.2 1.5 0.2 2 -6.9-0.1-14.3 1.1-20.7-2 -5.7-2.9-10.1-8-13.5-13.3 -12.8-18.8-25.2-37.8-37.8-56.7 -3.4-0.4-6.8-0.8-10.1-1.3 0 17.5 0 34.9 0 52.4 0 3.6-0.3 7.3 0.5 10.9 0.9 3.7 3.2 7.7 7.4 8.2 0.1 0.5 0.2 1.4 0.3 1.8 -10.6 0.1-21.1 0.2-31.7-0.1 1.1-2.5 4.4-2.6 5.8-4.9 2.1-2.8 2.8-6.4 2.8-9.9 0-37.7 0-75.4 0-113.1 0.1-3.7-0.7-7.7-3.2-10.6C4597 833.6 4594.1 833.5 4593.2 831.1zM4616.6 838.1c0 18.3 0 36.6 0 55 11.5 0.3 24.4 2.1 34.3-5.1 10.2-6.7 13.4-20.5 10.1-31.8 -2.1-7.2-8.4-12.6-15.4-14.8C4636.3 838.2 4626.3 838.2 4616.6 838.1z" class="a"/><path d="M4748.9 831c32.7 0 65.4 0 98 0 0 7.9 0 15.9 0 23.8 -0.6 0-1.7 0-2.2 0 -0.3-7.1-5-15-12.7-15.6 -9-0.3-18 0-27-0.1 0 40 0 80 0 120 0 5.2 2 12.2 8 13.1 0 0.5 0 1.4 0.1 1.9 -10.4 0-20.8 0-31.1 0 0-0.5 0.1-1.4 0.1-1.9 5.7-0.7 8.1-7.1 8.1-12.1 0-40.3 0-80.6 0-120.8 -8.8 0.1-17.6-0.2-26.4 0.1 -7.8 0.5-12.5 8.4-12.8 15.6 -0.5 0-1.6 0-2.2 0C4748.9 846.8 4748.9 838.9 4748.9 831z" class="a"/><path d="M4904 831c7.4-0.1 14.8 0 22.2 0 26.3 41.1 52.6 82.4 78.9 123.5 0-36.5 0-73 0-109.6 0-5.2-2.7-10.8-8-12.3 -0.3-0.4-0.8-1.1-1-1.5 8.6-0.2 17.1-0.2 25.7 0 -1 2.4-4.1 2.3-5.5 4.1 -2.5 2.9-3.4 6.9-3.3 10.7 0 42.7 0 85.3 0 128 -4.6 0-9.2 0-13.7 0 -26.2-41.3-52.4-82.6-78.6-123.9 0 36.6 0 73.3 0 109.9 -0.1 5.1 2.4 11.4 8.2 12.1 0 0.5 0.1 1.4 0.1 1.9 -8.2 0-16.4 0.1-24.6-0.1 0.1-0.4 0.3-1.3 0.3-1.8 4.2-0.6 6.6-4.3 7.5-8.1 0.9-3.6 0.5-7.4 0.6-11 0-35.7 0-71.3 0-107 0-3.7-0.3-7.8-3-10.7 -1.4-1.7-3.7-1.8-5.7-2.2C4904.1 832.5 4904.1 831.5 4904 831z" class="a"/><path d="M5087.2 831.1c28.2-0.3 56.4-0.1 84.7-0.1 0 6.9 0 13.8 0 20.7 -0.5 0-1.6 0-2.2 0 -0.8-3.7-2.2-7.6-5.3-10 -3.2-2.5-7.4-2.7-11.3-2.7 -14 0-28.1 0-42.1 0 0 18 0 35.9 0 53.9 11.7 0 23.4 0 35.1 0 4.4 0.1 9.2-1.6 11.4-5.6 1.1-1.9 1-4.8 3.7-5.2 0.2 9.1 0 18.2 0.1 27.3 -0.5 0-1.6 0.1-2.2 0.2 -0.6-5.5-5.5-9.6-10.9-9.5 -12.4-0.2-24.8 0-37.1-0.1 0 22 0 43.9 0 65.9 15.3 0 30.7 0 46 0 4.3 0.1 8.6-1.2 11.7-4.3 3.9-3.3 5.4-8.4 6.5-13.2 0.5-0.2 1.5-0.6 2-0.8 0.1 8.8 0 17.6 0.1 26.4 -29.9 0.1-59.8-0.1-89.6-0.1 0-0.5 0-1.4 0-1.9 5.9-0.5 8.4-7 8.5-12.2 0-38 0-75.9 0-113.9 0.1-3.9-1-7.8-3.5-10.8C5091.2 833.4 5088 833.6 5087.2 831.1z" class="a"/><path d="M5239.1 831.2c12.6-0.4 25.3-0.1 37.9-0.2 8.3-0.1 16.7 0.7 24.6 3.4 8.2 2.8 16 8.4 19.3 16.7 5 13 2.4 29.2-8 38.8 -6.4 6-15 9-23.5 10.8 10 15 19.7 30.1 30 44.8 5.3 7.3 9.5 15.6 16 22 2.4 2.5 5.6 3.9 9 4.5 0 0.5 0.2 1.5 0.2 2 -6.9 0.1-14.3 1-20.7-2.1 -6.2-3.2-10.7-8.8-14.4-14.5 -12.5-18.4-24.7-37-37-55.5 -3.4-0.3-6.8-0.8-10.1-1.3 0 19.8 0 39.6 0 59.4 0.1 4.9 2.3 11.4 7.9 12.2 0.1 0.5 0.2 1.4 0.2 1.9 -10.5 0.3-21.1 0.2-31.6 0.1 0.7-2.6 3.8-2.6 5.3-4.5 2.4-2.9 3.3-6.8 3.2-10.4 0-37.7 0-75.4 0-113.1 0-3.5-0.6-7.2-2.7-10C5243.6 833.6 5240.2 833.7 5239.1 831.2zM5262.6 838.1c0 18.3 0 36.7 0 55 5.8 0.3 11.6 0.4 17.4 0.3 8.8-0.3 17.7-4.1 23-11.3 5.4-7 6.2-16.6 4.3-25 -1.8-7.7-8.3-13.4-15.6-15.8C5282.3 838.2 5272.3 838.2 5262.6 838.1z" class="a"/></svg>
