<svg width="733" height="107" xmlns="http://www.w3.org/2000/svg"><path d="M73.567 6.278c1.21-.091 1.704.493 1.257 1.793l-6.997 19.508c-.268.718-.672.584-.986-.134-1.077-2.423-3.05-3.725-5.515-4.218-1.345-.268-2.872-.356-4.44-.268-2.511.183-4.753.451-7.267 1.345l-8.966 59.377c-1.166 7.667-2.018 13.903 1.656 19.101.989 1.39.182 2.109-.895 2.154l-33.185 1.973c-1.345.085-1.613-.673-.852-1.528 5.247-5.831 6.324-12.779 7.4-19.91l9.013-59.687c-2.29-.445-4.395-.314-6.906-.177-6.056.359-10.042 1.972-15.47 5.648-.851.585-1.66.137-1.344-.76l7.353-19.104c.629-1.704.898-1.704 3.229-1.436l50.674-2.958zm590.007 18.563l.095.002 23.766 2.198 4.933.45c4.93.444 9.012.669 13.23 3.901 5.517 4.261 7.846 10.716 6.95 18.519-.985 8.742-7.087 14.665-14.126 17.309l9.376 24.259c1.744 4.531 3.85 8.749 6.32 12.603.403.626.628 1.123.67 1.481v.137c-.042.53-.492.803-1.57.895-6.23.404-20.447.445-24.033-9.508l-1.75-5.289-7.042-21.17-1.838 16.188c-.673 5.609-2.197 11.702 1.393 15.698.67.718.402 1.299-.316 1.208l-24.173-2.194c-.803-.046-1.343-.679-.536-1.3 4.304-3.317 4.304-9.559 4.93-15.116l4.979-43.321c.63-5.691 1.976-11.836-1.61-15.917-.496-.581-.137-1.074.447-1.031zM492.588 3.947c-.76-1.168.09-1.838 1.03-1.75l23.72 2.152c1.44.134 2.518.675 2.786 1.975l11.75 54.842 19.728-51.257c.584-1.567 1.57-2.286 4.035-2.06l24.532 2.243c.18 0 .4.042.536.134.538.268.63.806 0 1.433a1.76 1.76 0 01-.311.271c-2.605 1.881-3.902 3.676-3.946 8.029l-1.257 62.104c-.177 7.489-.177 14.574 3.228 20.673.582 1.077.27 1.704-.493 1.613l-29.237-2.599c-.895-.045-1.614-.718-.405-1.932 2.109-2.104 3.722-5.198 3.768-8.379l1.257-50.317-.362-.046-21.523 56.371c-1.166 3.004-2.29 4.348-6.458 1.835-8.431-5.068-11.705-13.857-13.677-23.763l-7.758-38.926-.36-.045-9.82 48.7c-.81 4.037.585 7.445 2.736 10.181.627.804.36 1.612-.538 1.522l-20.405-1.881c-.896-.091-1.434-.856-.585-1.71 4.668-4.839 5.877-11.206 7.358-18.2l12.737-59.243c1.029-4.614.043-8.561-2.066-11.97zm116.058 15.874l5.782.539 15.877 1.436c1.12.134 2.06.67 2.286 2.106l11.93 63.633c.943 3.904 2.465 8.071 5.247 11.388.894 1.032.627 2.155-.493 2.063l-25.786-2.376c-1.434-.132-1.93-.896-.72-1.882 3.096-2.514 3.544-5.603 2.648-9.957l-2.02-11.566-8.97-.809-11.028-1.031-3.32 7.712c-.941 2.246-2.511 5.785-2.78 8.208-.27 2.553.63 4.166 1.839 5.602.582.673.268 1.527-.63 1.437l-17.265-1.568c-.221 0-.401-.046-.535-.136-.54-.223-.585-.81 0-1.437l.042-.046c3.275-3.408 5.025-6.458 7.268-11.656l19.237-45.158c.852-2.286 3.004-6.681 3.272-9.146.316-2.647-.804-4.62-2.241-6.233-.671-.809.046-1.123.36-1.123zM103.163 21.48c.987-.043 1.705.359 1.93 1.436l11.078 56.188c1.165 6.054.94 9.508 4.574 13.275.222.223.402.445.627.627 1.299 1.208.222 2.018-.405 2.064h-.222l-27.448 1.3c-1.254.04-1.522-1.033-.627-1.796 1.75-1.522 2.96-2.822 3.408-5.603.676-4.623-1.3-10.585-2.06-15.162l-9.24.41-11.972.582-3.722 7.843c-1.12 2.337-2.824 5.922-3.183 8.293-.405 2.696.669 4.042 2.014 5.341.673.673.36 1.215-.267 1.26l-6.324.313-12.597.627c-.944.046-1.485-.627-.675-1.391 3.858-3.676 5.605-6.999 8.162-12.38l5.11-10.846 16.549-35.296c.986-2.285 3.363-6.814 3.722-9.236.359-2.286-.627-3.99-1.795-5.338-.804-.898-.584-1.434.767-1.476l4.212-.228zm76.684-4.261c2.465 0 3.408.81 3.184 3.32l-1.167 11.121c-.13 1.345-.538 2.197-2.51.941-4.17-2.646-9.282-3.813-14.71-3.54-14.662.669-21.342 13.363-23.451 27.128-2.377 15.739 3.497 28.205 19.46 27.492 7.042-.358 13.186-3.049 20.003-6.235 2.557-1.208 3.05.222 2.063 2.331l-4.175 9.011c-1.476 3.141-1.564 3.369-4.93 4.264-14.125 3.859-34.037 5.871-45.516-5.7-3.543-3.494-5.963-7.797-7.353-12.733-1.391-4.976-1.662-10.585-.764-16.416a40.77 40.77 0 01.764-3.94c2.285-9.282 7.666-18.793 15.202-25.202 12.736-10.898 27.938-11.662 43.9-11.842zm50.45-1.838c22.468-1.077 36.818 12.064 33.05 37.129-3.363 22.336-20.451 36.951-39.597 40.45-2.197.4-4.394.673-6.592.759-21.93 1.037-36.681-13.315-33.05-37.35 3.317-21.839 20.405-36.727 39.642-40.227a46.142 46.142 0 016.547-.761zM322.36 0c10.137.183 19.508 1.254 27.445 8.074 6.008 5.155 9.82 12.195 11.662 20.223 1.254 5.694 1.52 11.839.804 18.117a52.312 52.312 0 01-.804 5.201c-2.514 11.884-8.79 23.5-18.03 30.989-6.995 5.648-13.901 7.98-21.077 8.921-5.783.763-11.748.672-18.026.672l-24.438.046c-1.12 0-2.602-.804-1.12-2.554 3.899-4.754 4.212-11.257 4.927-17.493l4.936-43.004c.536-4.754 2.015-17.49 1.836-21.569-.131-1.837-.85-3.767-1.881-5.246-.898-1.345-.226-2.286 1.074-2.286l23.589-.045C316.353 0 319.403 0 322.36 0zm121.527 18.074c.807 0 1.166.628.45 1.297-4.038 3.722-4.172 9.462-4.796 14.934l-5.162 45.112c3.007 1.66 6.727 1.887 10.36 1.887 4.665 0 8.476-1.077 12.603-3.408 1.077-.627 1.7-.091 1.254 1.163l-4.127 11.656c-.402 1.083-1.074 1.351-1.838 1.351l-40.268.086c-1.123 0-1.481-.941-.586-1.699 3.904-3.591 3.767-9.017 4.352-14.261l4.799-41.976c.58-5.201 1.927-10.941-1.166-14.486-.81-.986-.091-1.613.943-1.613zm-37.31-.675c1.03-.225 1.167.316 1.078 1.077l-1.527 13.187c-.09 1.163-.627 1.117-1.3.177-2.601-3.592-7.623-3.141-12.017-3.141h-3.23l-2.106 18.208h9.374c.986 0 1.972-.045 2.778-.225 1.48-.359 1.48 0 1.39.986l-1.527 13.271c-.085.718-.581.946-.986 0-1.433-3.271-5.605-2.914-8.966-2.865h-3.32l-2.422 21.167c3.187 1.431 6.862 1.653 10.405 1.653 5.067-.04 10.046-.667 13.99-4.794.852-.809 1.479-.228 1.124.759l-4.757 13.594c-.311.94-.584 1.203-1.571 1.203l-41.52.096h-.676c-.535 0-.852-.541-.18-1.123.314-.227.585-.496.856-.763 3.36-3.539 3.542-9.057 4.127-14.084l4.793-42.104c.584-5.113 1.838-11.434-.986-14.216-.941-.895-.627-1.747.895-1.747l32.917-.091c1.119 0 2.33 0 3.365-.225zM242 57.489c1.927-13.004-.091-31.344-14.751-30.671-1.214.088-2.38.223-3.5.493-17.532 3.99-22.243 30.983-16.547 45.831 2.152 5.335 6.857 9.411 12.959 9.103 1.254-.045 2.42-.228 3.588-.496 10.716-2.513 16.684-13.948 18.25-24.26zm80.36-42.646h-.627c-2.782 0-5.56.45-8.388.986l-7.04 61.388c2.199.81 4.396 1.123 6.64 1.078 3.632 0 6.682-.536 9.415-1.881 3.274-1.619 6.099-4.303 8.835-8.521 4.126-6.413 5.964-13.992 6.817-21.436 1.658-14.215-.81-31.122-15.652-31.614zm361.756 23.275l-3.005 26.321c2.288-.223 4.485-1.169 6.323-2.554 3.32-2.468 5.743-6.548 6.279-11.213.404-3.719-.451-7.801-2.916-10.268-.986-.987-2.154-1.48-3.363-1.793-.761-.225-1.525-.314-2.334-.405l-.984-.088zm-67.132 2.374h-.137l-2.42 5.785-6.86 16.549 6.86.627 6.863.627-4.306-23.588zm-528.932.764h-.091l-3.183 6.951-7.265 15.827 7.265-.308 7.264-.364-3.99-22.106zm638.139-7.701c3.473 0 6.24 2.691 6.24 6.128 0 3.437-2.767 6.164-6.275 6.164-3.513 0-6.315-2.727-6.315-6.164s2.802-6.128 6.35-6.128zm-.075 1.234c-2.656 0-4.705 2.203-4.705 4.894 0 2.724 2.049 4.893 4.78 4.893 2.656.04 4.673-2.169 4.673-4.859 0-2.725-2.017-4.928-4.748-4.928zm0 1.753c1.158 0 1.682.188 2.092.487.376.259.636.71.636 1.308 0 .747-.562 1.232-1.27 1.457v.077c.597.185.897.67 1.084 1.493.186.935.334 1.268.448 1.493h-1.493c-.19-.225-.302-.746-.485-1.493-.114-.636-.487-.935-1.274-.935h-.672v2.428h-1.42V36.73c.56-.074 1.346-.188 2.354-.188zm-.111 1.049c-.373 0-.636.037-.786.071v1.758h.675c.784 0 1.417-.262 1.417-.897 0-.559-.408-.932-1.306-.932z" fill="#005E86" fill-rule="evenodd"/></svg>